<?xml version="1.0" standalone="no"?>
<!DOCTYPE svg PUBLIC "-//W3C//DTD SVG 20010904//EN"
 "http://www.w3.org/TR/2001/REC-SVG-20010904/DTD/svg10.dtd">
<svg version="1.0" xmlns="http://www.w3.org/2000/svg"
 width="256.000000pt" height="256.000000pt" viewBox="0 0 256.000000 256.000000"
 preserveAspectRatio="xMidYMid meet">
<metadata>
Created by potrace 1.11, written by Peter Selinger 2001-2013
</metadata>
<g transform="translate(0.000000,256.000000) scale(0.100000,-0.100000)"
fill="#000000" stroke="none">
<path d="M1850 2500 c-25 -25 -25 -37 -2 -44 10 -3 8 -4 -7 -3 -13 1 -27 -5
-32 -13 -4 -8 -58 -105 -119 -216 l-110 -201 -76 18 c-107 25 -303 43 -404 36
l-85 -6 -25 46 c-61 115 -198 205 -340 222 -299 38 -534 -131 -572 -410 -20
-155 33 -319 139 -428 l54 -56 -10 -60 c-58 -342 41 -700 259 -939 85 -92 239
-216 308 -248 128 -58 215 -73 442 -72 189 0 213 3 303 27 181 48 287 126 287
210 0 23 -7 52 -15 63 -13 20 -11 26 26 75 164 219 258 537 229 775 -17 144
-85 368 -152 502 -31 63 -117 136 -218 185 l-88 43 103 185 c57 101 107 189
111 194 5 6 15 22 23 38 8 15 18 27 22 27 7 0 254 -258 319 -333 22 -26 40
-37 54 -35 50 7 29 41 -133 215 -216 231 -244 250 -291 203z m207 -167 c193
-204 227 -243 215 -243 -5 0 -27 19 -47 43 -119 133 -309 327 -321 327 -9 0
-12 5 -9 10 3 6 10 10 15 10 4 0 71 -66 147 -147z m-227 91 c0 -5 -218 -402
-227 -413 -2 -2 -5 -2 -7 0 -3 3 44 92 104 199 60 107 109 201 110 208 0 11
20 18 20 6z m-1125 -121 c69 -22 151 -73 207 -130 89 -91 135 -288 98 -422
-18 -70 -70 -171 -107 -211 -28 -32 -42 -39 -88 -45 -30 -3 -55 -11 -55 -16 0
-6 -4 -8 -9 -4 -6 3 -14 -2 -19 -11 -6 -11 -17 -15 -30 -12 -15 4 -19 2 -15
-8 4 -12 0 -12 -21 -4 -35 13 -33 4 4 -15 41 -21 73 -19 128 9 103 52 192 158
231 274 25 73 28 197 7 285 l-13 58 155 -2 c120 0 173 -5 231 -20 42 -11 92
-22 111 -25 18 -3 36 -7 38 -9 2 -2 -75 -146 -172 -319 -97 -173 -176 -320
-176 -326 0 -14 43 -13 63 3 9 6 88 143 176 302 88 160 164 296 169 304 6 11
14 12 45 2 20 -7 37 -17 37 -22 0 -5 11 -9 25 -9 14 0 25 -3 25 -7 0 -5 20
-21 45 -36 25 -16 61 -53 83 -86 33 -50 38 -65 37 -109 -1 -29 -8 -58 -15 -67
-8 -10 -9 -15 -1 -15 17 0 13 -13 -14 -42 -14 -15 -25 -29 -25 -32 0 -12 -82
-86 -95 -86 -8 0 -15 -4 -15 -10 0 -5 -5 -10 -11 -10 -6 0 -22 -9 -36 -20 -14
-11 -43 -23 -64 -26 -21 -4 -44 -13 -50 -20 -6 -8 -15 -11 -20 -8 -5 3 -9 1
-9 -5 0 -5 -33 -14 -72 -21 -40 -6 -95 -17 -123 -25 -66 -17 -169 -22 -250
-11 -22 3 -65 8 -95 11 -69 6 -82 9 -97 18 -6 4 -18 4 -27 1 -9 -3 -23 -1 -31
6 -8 7 -32 10 -55 8 -22 -2 -40 0 -40 5 0 5 -7 7 -15 3 -8 -3 -15 -2 -15 2 0
9 -55 43 -67 41 -23 -4 -43 2 -38 11 3 6 -1 10 -9 10 -9 0 -16 4 -16 8 0 5
-15 16 -34 24 -96 46 -149 132 -144 232 l3 61 33 3 33 3 -6 -45 c-12 -76 32
-168 104 -223 20 -15 30 -20 23 -11 -11 14 -9 17 18 23 17 4 33 12 36 18 2 7
18 12 34 13 41 1 103 50 97 76 -4 15 -1 18 13 13 30 -9 57 11 83 63 30 60 40
99 27 107 -16 10 -12 22 10 28 15 4 20 14 20 36 0 30 -8 36 -39 32 -7 -2 -10
3 -6 9 4 6 15 8 26 5 22 -7 25 10 8 68 -6 24 -16 37 -27 37 -13 0 -14 2 -3 9
11 7 10 16 -7 52 -25 58 -74 103 -101 96 -12 -3 -18 -1 -15 4 8 13 -13 37 -49
56 -29 14 -31 14 -48 -8 -15 -20 -19 -21 -19 -6 0 9 5 17 10 17 6 0 10 5 10
10 0 13 -38 28 -91 36 -32 5 -39 4 -39 -10 0 -9 -4 -16 -10 -16 -5 0 -10 5
-10 10 0 6 -20 10 -44 10 -57 0 -151 -48 -150 -76 0 -16 -5 -19 -26 -16 -22 3
-35 -6 -73 -48 -46 -51 -60 -93 -34 -104 6 -3 3 -4 -7 -3 -35 4 -47 -38 -43
-153 4 -118 23 -180 56 -180 14 0 18 -5 14 -20 -4 -14 5 -34 26 -60 35 -44 37
-52 15 -71 -34 -28 -137 129 -170 261 -33 129 -3 250 90 368 120 151 317 212
501 155z m125 -167 c0 -2 -7 -7 -16 -10 -8 -3 -12 -2 -9 4 6 10 25 14 25 6z
m27 -31 c0 -8 -6 -16 -14 -19 -16 -7 -17 6 -1 22 15 15 15 15 15 -3z m-64 -21
c6 -6 -16 -34 -26 -34 -3 0 -3 9 0 20 5 20 15 25 26 14z m-312 -94 c34 -44 68
-80 75 -80 11 0 14 19 14 82 0 103 9 99 11 -5 2 -98 16 -99 79 -4 25 37 48 67
52 67 13 0 2 -26 -21 -49 l-24 -24 29 -13 c34 -15 27 -18 -10 -4 -22 8 -27 6
-37 -13 -7 -12 -17 -25 -22 -29 -6 -3 -12 -14 -13 -23 -2 -11 3 -14 15 -10 12
3 18 0 18 -10 0 -9 -6 -14 -14 -11 -8 3 -12 2 -9 -3 3 -5 22 -12 41 -15 30 -6
39 -3 56 16 l19 23 -10 -27 c-8 -24 -7 -28 10 -28 10 0 22 -4 25 -10 8 -13 -6
-13 -39 0 -22 8 -26 7 -26 -8 -1 -16 -2 -16 -13 0 -7 9 -30 19 -50 23 -26 5
-42 15 -51 32 -12 23 -14 24 -29 9 -9 -9 -14 -23 -11 -31 4 -10 0 -15 -11 -15
-10 0 -45 -17 -79 -38 -119 -75 -150 -81 -38 -7 73 47 73 68 1 61 -28 -3 -49
-1 -49 4 0 6 11 10 25 10 14 0 25 3 25 8 0 4 11 8 25 8 14 1 22 -2 19 -7 -3
-5 3 -9 14 -9 24 0 68 45 53 55 -6 3 -38 42 -72 87 -33 44 -55 77 -50 73 6 -3
38 -42 72 -85z m189 59 c0 -5 -4 -9 -10 -9 -5 0 -10 7 -10 16 0 8 5 12 10 9 6
-3 10 -10 10 -16z m213 -4 c-3 -9 -8 -14 -10 -11 -3 3 -2 9 2 15 9 16 15 13 8
-4z m-243 -45 c0 -5 -2 -10 -4 -10 -3 0 -8 5 -11 10 -3 6 -1 10 4 10 6 0 11
-4 11 -10z m774 -329 c-98 -177 -181 -321 -185 -321 -4 0 74 146 173 325 100
179 183 323 186 321 2 -3 -76 -149 -174 -325z m-966 273 c0 -15 -4 -22 -10
-16 -5 5 -6 16 -2 25 9 23 12 21 12 -9z m-37 -24 c35 -16 57 -29 49 -29 -14 0
-131 58 -119 59 4 0 35 -13 70 -30z m-64 -6 c-3 -3 -12 -4 -19 -1 -8 3 -5 6 6
6 11 1 17 -2 13 -5z m338 -16 c-9 -6 -19 -7 -22 -4 -4 3 -1 6 6 6 7 0 9 4 6
10 -4 6 1 7 11 3 15 -6 15 -7 -1 -15z m-170 -8 c-3 -5 -14 -10 -23 -10 -15 0
-15 2 -2 10 20 13 33 13 25 0z m275 -41 c0 -11 -21 -11 -39 0 -9 6 -5 9 13 9
14 0 26 -4 26 -9z m-180 -24 c7 -8 19 -15 26 -15 8 0 14 -5 14 -12 0 -7 15
-28 33 -47 24 -27 25 -30 5 -12 -16 14 -31 22 -34 18 -4 -4 4 -15 16 -25 16
-13 20 -21 12 -26 -7 -4 -12 -1 -12 8 0 9 -7 16 -16 16 -9 0 -14 7 -12 18 1
10 -9 30 -25 45 -35 36 -35 20 3 -84 17 -45 29 -84 26 -86 -2 -2 -16 31 -32
74 -15 43 -31 89 -36 103 l-9 25 -19 -25 c-11 -14 -20 -21 -20 -17 0 4 -10 3
-22 -3 -14 -7 -7 3 16 25 42 38 66 44 86 20z m240 -55 c0 -5 -9 -9 -20 -7 -31
5 -36 17 -7 17 15 0 27 -4 27 -10z m-270 -40 c0 -5 -5 -10 -11 -10 -5 0 -7 5
-4 10 3 6 8 10 11 10 2 0 4 -4 4 -10z m320 -10 c12 -8 11 -10 -7 -10 -12 0
-25 5 -28 10 -8 13 15 13 35 0z m-160 -35 c13 -14 21 -25 18 -25 -2 0 -15 11
-28 25 -13 14 -21 25 -18 25 2 0 15 -11 28 -25z m-140 -15 c0 -5 -4 -10 -10
-10 -5 0 -10 5 -10 10 0 6 5 10 10 10 6 0 10 -4 10 -10z m145 -20 c3 -5 1 -10
-4 -10 -6 0 -11 5 -11 10 0 6 2 10 4 10 3 0 8 -4 11 -10z m-1 -66 c7 -19 2
-18 -19 6 -16 17 -16 20 -3 15 9 -4 19 -13 22 -21z"/>
<path d="M498 1852 c-10 -2 -18 -8 -18 -13 0 -13 27 -11 35 2 9 13 4 16 -17
11z"/>
</g>
</svg>
