<svg version="1" xmlns="http://www.w3.org/2000/svg" width="341.333" height="341.333" viewBox="0 0 256.000000 256.000000"><path d="M188 4.9c0 .6-.7.8-1.6.4-1.4-.5-1.5-.3-.4 1.8 1.2 2.1 1.1 2.2-.2 1.2-.8-.7-1.8-1-2.1-.7-.3.4.4 1.5 1.6 2.5l2.2 1.8-2.8.1c-1.9 0-2.6-.4-2.1-1.2.5-.7.3-.8-.6-.3-1 .6-.9 1.1.4 2.1 1.6 1.1 1.5 1.6-1.2 6-1.7 2.7-15 26.5-29.7 52.9s-26.9 48.3-27.2 48.7c-.2.5.4.8 1.5.8 1.4 0 6-7.6 19.3-31.5C154.7 72.2 163 58 163.6 58c.6 0 2.8 1.1 4.8 2.5s4.3 2.5 5.1 2.5c.8 0 1.5.5 1.5 1.1 0 .5.4.8.9.5.5-.3 1.1.1 1.5.9.3.8 1.2 1.5 2 1.5 1.6 0 7.2 5.9 10.4 11.1 2.5 4 2.6 12.5.3 15.3-.9 1.1-1 1.6-.2 1.6 1.9 0 1.2 2.8-1.1 4.7-1.3 1-2.4 2.5-2.6 3.3-.2.8-.8 1.6-1.3 1.8-1.1.4-1.2 3.2-.1 3.2.5 0 1.9-1.1 3.2-2.5 1.3-1.4 2.5-2.3 2.8-2.1.7.8-4.4 5.4-6.4 5.8-1.1.2-1.8 1.1-1.8 2.1.1.9-.4 1.7-1.2 1.7-.7 0-1.9.9-2.7 2-1.6 2.3-22.3 9.8-30.7 11.1-3 .5-9.5 1.5-14.5 2.4-8.4 1.5-20 1.5-40.8 0-2.6-.2-5 .1-5.3.6-1 1.7-3.4.9-3.4-1.1 0-1.1-.5-2-1.1-2-.6 0-.8-.7-.5-1.6.7-1.7.5-1.7-4.1 1.1-3 1.8-3.3 2.5-3.4 7v5l-1.8-7c-1-3.8-2.3-7.1-2.9-7.3-.5-.1-2-1.2-3.2-2.2-1.2-1.1-3.8-2.4-5.9-3.1-2-.6-4.8-2-6.3-3-1.4-1.1-3-1.9-3.5-1.9-.4-.1-2.8-1.9-5.3-4.1-2.9-2.6-3.6-3.6-2-2.9 1.4.7 3.2 1.9 4.1 2.7 1.4 1.2 1.7 1.2 2.2-.1.3-.8-.1-1.7-.8-2-1.9-.7-6.4-9.8-6.6-13.3-.5-8.2.1-11.1 2.2-11.6 3.5-.9 4.9.3 5 4.2.2 3.5.2 3.5.9-.9.4-2.5 1-5.3 1.4-6.2.7-1.5.3-1.5-3 .3-2.1 1-4.6 1.9-5.5 1.9-2.7 0-7.8 4.8-10.3 9.9-2.7 5.3-5.9 17.1-7.6 28.3-2 12.2-.8 35.1 2.3 47.1 5 18.8 14.6 35.9 27.6 48.7 18.2 18 39.9 26.3 69.6 26.4 16.1 0 22.6-.9 34.4-5.1 9.5-3.3 17.1-10.1 17.1-15.2 0-2.4 1.3-4.7 5.2-9.4 11.4-13.8 19.9-30.2 24.5-47.7 3-11.5 4.2-31.6 2.4-41.2-3.1-16.6-12.3-42.2-17.5-49.2-3.7-4.8-14.5-12.3-21.7-15.1-2.8-1.1-5.3-2.3-5.5-2.6-.2-.4 4.2-9 9.9-19 15.1-27 14.9-26.7 17-25.2.7.4.5 0-.5-.9-2-1.8-.8-3.5 1.6-2.1 1.2.7 11.2 11.1 29.9 31.1 5.2 5.6 6.9 6.9 7.4 5.7.4-1.1-1.2-3.5-4.8-7.3-3-3.1-10.4-10.9-16.4-17.2-11.6-12.2-14.8-15.1-16.8-15.4-.6-.1-1.8-.5-2.4-.9-.7-.5-1.3-.4-1.3.2zm6 95.1c-.9 1.6-4 1.9-4 .3 0-.3.6-.3 1.4 0 .8.3 1.7-.1 2-.9.3-.8.8-1.4 1.1-1.4.3 0 .1.9-.5 2z"/><path d="M178 18c-.6 1.1-.8 2-.6 2 .3 0 1-.9 1.6-2 .6-1.1.8-2 .6-2-.3 0-1 .9-1.6 2zM203.5 24c3.8 3.8 7.2 7 7.4 7 .3 0-2.6-3.2-6.4-7-3.8-3.9-7.2-7-7.4-7-.3 0 2.6 3.1 6.4 7zM20.9 35.7l-2.4 2.8 2.8-2.4c1.5-1.4 2.7-2.6 2.7-2.8 0-.8-.8-.1-3.1 2.4zM218.5 40c2.1 2.2 4.1 4 4.4 4 .3 0-1.3-1.8-3.4-4-2.1-2.2-4.1-4-4.4-4-.3 0 1.3 1.8 3.4 4zM101 49.9c0 .5 3.1.7 7.3.4 13.3-.9 45.8 3.7 47.8 6.8.4.8 1.3 0 2.5-2.2 1.3-2.6 1.4-3.1.2-2.2-1.1.9-2.4 1-4.9.3-8.4-2.5-22.4-4-37.1-4-9 0-15.8.4-15.8.9zM55.5 70.1c-1 1.5.1 2.3 2 1.5.9-.3 1.3-1 1-1.6-.8-1.3-2.2-1.3-3 .1zM50.1 92.6c-.1 3.2 4.1 10.8 7.5 13.4 1 .8.6 0-1-1.9-2.9-3.6-4.3-6.5-5.6-11.6l-.8-3-.1 3.1zM55 99c0 .5.7.7 1.5.4 1-.4 1.5 0 1.5 1.4 0 1.2.4 2.4 1 2.7.6.3.7-.1.4-.9-.3-.9-.1-1.6.5-1.6s1.2.7 1.2 1.5c.1.8.2 2.1.3 2.7.1 1.7 3.1 2.2 5.3.9 1.7-1 1.6-1.1-.5-1.7-1.4-.4-2.1-1.2-1.8-2 .3-.8.1-1.4-.5-1.4s-.9-.7-.5-1.5c.4-1.2-.4-1.5-3.9-1.5-2.5 0-4.5.4-4.5 1zM86.9 106.7c-1.3 1.6-1.2 1.7.4.4.9-.7 1.7-1.5 1.7-1.7 0-.8-.8-.3-2.1 1.3zM71.8 114.7c.6.2 1.8.2 2.5 0 .6-.3.1-.5-1.3-.5-1.4 0-1.9.2-1.2.5z"/></svg>